<?xml version="1.0" encoding="utf-8"?>
<!-- Generator: Adobe Illustrator 25.1.0, SVG Export Plug-In . SVG Version: 6.00 Build 0)  -->
<svg version="1.1" id="Layer_1" xmlns="http://www.w3.org/2000/svg" xmlns:xlink="http://www.w3.org/1999/xlink" x="0px" y="0px"
	 viewBox="0 0 600 234" style="enable-background:new 0 0 600 234;" xml:space="preserve">
<style type="text/css">
	.st0{fill:#E1E1E1;}
	.st1{clip-path:url(#SVGID_2_);}
	.st2{fill:#231F20;}
	.st3{fill:#FFFFFF;}
	.st4{fill:#E6E7E8;}
	.st5{fill:#FABB9F;}
	.st6{fill:#DCA68E;}
	.st7{fill:#485571;}
	.st8{fill:#58595B;}
	.st9{fill:#CCCCCC;}
	.st10{fill:#DFBB3F;}
	.st11{font-family:'Montserrat-Regular';}
	.st12{font-size:12px;}
	.st13{fill:none;stroke:#DFBB3F;stroke-miterlimit:10;}
</style>
<g>
	
		<ellipse transform="matrix(0.1608 -0.987 0.987 0.1608 180.1987 356.101)" class="st0" cx="299.51" cy="72.08" rx="52.33" ry="52.33"/>
	<g>
		<defs>
			
				<ellipse id="SVGID_1_" transform="matrix(0.1608 -0.987 0.987 0.1608 180.1987 356.101)" cx="299.51" cy="72.08" rx="52.33" ry="52.33"/>
		</defs>
		<clipPath id="SVGID_2_">
			<use xlink:href="#SVGID_1_"  style="overflow:visible;"/>
		</clipPath>
		<g class="st1">
			<path class="st2" d="M275.56,67.68c-0.29,0.43-1.19,36.82,5.2,44.27h36.2c0,0,9.89-27.94,3.15-44.27h-44.77"/>
			<g>
				<rect x="290.07" y="87.68" class="st3" width="20.04" height="13.5"/>
				<path class="st4" d="M294.93,97.45c3.02,1.2,6.33,1.92,9.58,1.95c1.86,0.01,3.76-0.22,5.6-0.54V87.68h-20.04v6.98
					C291.48,95.9,293.28,96.79,294.93,97.45z"/>
				<g>
					<path class="st5" d="M321.78,62.27c0.07-0.5,0.91-1.31,1.28-1.58c0.82-0.61,1.65,0.02,1.89,0.81c0.21,0.71,0.23,1.51,0.29,2.24
						c0.13,1.79-0.15,3.55-0.95,5.17c-0.54,1.08-1.38,1.97-2.38,2.64c0,0-1.08,0.54-1.29-0.7
						C320.62,70.85,321.78,62.28,321.78,62.27z"/>
					<path class="st6" d="M321.61,63.35c0.05-0.36,0.65-0.93,0.92-1.13c0.59-0.44,1.18,0.01,1.36,0.58c0.15,0.51,0.17,1.08,0.21,1.6
						c0.09,1.28-0.11,2.54-0.68,3.7c-0.39,0.77-0.99,1.41-1.71,1.89c0,0-0.77,0.38-0.92-0.5C320.78,69.49,321.61,63.35,321.61,63.35
						z"/>
				</g>
				<g>
					<path class="st5" d="M277.89,62.27c-0.07-0.5-0.91-1.31-1.28-1.58c-0.82-0.61-1.65,0.02-1.89,0.81
						c-0.22,0.71-0.24,1.51-0.29,2.24c-0.12,1.79,0.15,3.55,0.95,5.17c0.54,1.08,1.38,1.97,2.38,2.64c0,0,1.08,0.54,1.29-0.7
						C279.06,70.85,277.89,62.28,277.89,62.27z"/>
					<path class="st6" d="M278.06,63.35c-0.05-0.36-0.65-0.93-0.92-1.13c-0.59-0.44-1.18,0.01-1.35,0.58
						c-0.15,0.51-0.17,1.08-0.21,1.6c-0.09,1.28,0.11,2.54,0.68,3.7c0.39,0.77,0.99,1.41,1.71,1.89c0,0,0.77,0.38,0.93-0.5
						C278.9,69.49,278.06,63.35,278.06,63.35z"/>
				</g>
				<path class="st3" d="M322.44,63.89c0,5.66-0.98,11.38-3.64,16.27c-2.33,4.28-5.83,7.71-9.59,10.45
					c-3.05,2.22-6.32,4.81-10.17,4.49c-4.02-0.33-7.15-3.76-10.09-6.43c-4.13-3.76-7.39-8.43-9.4-13.93
					c-1.24-3.39-1.81-7.21-1.81-10.86c0-18.29,10.01-29.79,22.35-29.79C312.44,34.09,322.44,45.6,322.44,63.89z"/>
				<path class="st3" d="M330.58,107.29l-21.76-6.53h-8.73h-8.73l-21.76,6.53c0,0-10.08,4.29-11.2,17.86h41.7h41.7
					C340.67,111.58,330.58,107.29,330.58,107.29z"/>
				<path class="st7" d="M330.58,107.29l-12.03-3.61l-18.46,18.44l-18.51-18.43l-11.98,3.59c0,0-10.08,4.29-11.2,17.86h41.7h41.7
					C340.67,111.58,330.58,107.29,330.58,107.29z"/>
			</g>
			<path class="st8" d="M284.92,41.36c0,0,10.76,17.07,37.45,19.98c0,0,5.05-19.45-13.72-28.9
				C308.65,32.43,294.29,26.5,284.92,41.36z"/>
			<path class="st8" d="M287.68,44.81c0,0-6.95,4.5-9.97,17.05c0,0-3.23-23.65,13.49-26.6L287.68,44.81z"/>
			<path class="st8" d="M314.96,59.37c0,0,7.16,45.56-4.16,58.46c0,0,14.47-2.15,15.19-22.07c0,0,2.58-40.69-7.21-54.73
				L314.96,59.37z"/>
			<path class="st8" d="M284.34,117.82c0,0-16.66-1.98-12.08-53.21c0,0,1.15-28.46,17.81-29.11l-0.96,10.8c0,0-9.58,2.85-8.34,25.37
				C280.77,71.67,279.79,107.94,284.34,117.82z"/>
		</g>
	</g>
	<g>
		<path class="st9" d="M295.02,69.23c0-0.78,0.12-1.5,0.35-2.14c0.24-0.64,0.58-1.19,1.03-1.65c0.45-0.46,0.99-0.81,1.63-1.06
			c0.64-0.25,1.35-0.37,2.13-0.37c0.66,0,1.27,0.1,1.83,0.29c0.56,0.19,1.06,0.47,1.48,0.84c0.42,0.36,0.75,0.82,1,1.36
			c0.24,0.54,0.36,1.16,0.36,1.84c0,0.5-0.05,0.93-0.16,1.3c-0.11,0.36-0.25,0.68-0.43,0.94c-0.18,0.26-0.38,0.5-0.61,0.71
			c-0.23,0.21-0.46,0.41-0.69,0.61c-0.27,0.23-0.52,0.45-0.75,0.66c-0.23,0.21-0.43,0.45-0.6,0.72c-0.17,0.26-0.3,0.57-0.4,0.93
			c-0.09,0.36-0.14,0.79-0.14,1.31h-2.31c0-0.63,0.03-1.16,0.1-1.6c0.06-0.44,0.17-0.82,0.31-1.15c0.14-0.33,0.32-0.62,0.52-0.87
			c0.21-0.25,0.45-0.5,0.74-0.74c0.23-0.2,0.45-0.39,0.65-0.56c0.21-0.17,0.39-0.36,0.56-0.57c0.16-0.21,0.29-0.44,0.39-0.7
			c0.09-0.26,0.14-0.56,0.14-0.92c0-0.43-0.07-0.8-0.22-1.1s-0.33-0.55-0.55-0.74c-0.21-0.19-0.44-0.32-0.69-0.41
			s-0.46-0.13-0.64-0.13c-0.89,0-1.54,0.29-1.96,0.87c-0.42,0.58-0.63,1.35-0.63,2.32H295.02z M298.42,76.98h2.87v2.68h-2.87V76.98z
			"/>
	</g>
</g>
<rect x="252.51" class="st10" width="94" height="25"/>
<text transform="matrix(1 0 0 1 272.1359 16.0278)" class="st11 st12">TDS User</text>
<g>
	<rect x="-0.25" y="209" class="st0" width="142" height="25"/>
	<text transform="matrix(1 0 0 1 22.1565 225.0278)" class="st11 st12">tdstelecom.com</text>
</g>
<g>
	<rect x="304.67" y="208.25" class="st0" width="142" height="25"/>
	<text transform="matrix(1 0 0 1 337.0207 224.2741)" class="st11 st12">hellotds.com</text>
</g>
<g>
	<rect x="152.33" y="208.25" class="st0" width="142" height="25"/>
	<text transform="matrix(1 0 0 1 185.2098 224.2741)" class="st11 st12">tdsfiber.com</text>
</g>
<g>
	<rect x="457.25" y="209" class="st0" width="142" height="25"/>
	<text transform="matrix(1 0 0 1 464.2905 225.0278)" class="st11 st12">bendbroadband.com</text>
</g>
<g>
	<g>
		<line class="st13" x1="299.51" y1="136.29" x2="299.51" y2="178.5"/>
		<g>
			<path class="st10" d="M297.63,136.38c0-1.04,0.84-1.88,1.88-1.88s1.88,0.84,1.88,1.88c0,1.04-0.84,1.88-1.88,1.88
				S297.63,137.42,297.63,136.38z"/>
		</g>
	</g>
</g>
<g>
	<g>
		<line class="st13" x1="70.75" y1="178.5" x2="70.75" y2="205.37"/>
		<g>
			<polygon class="st10" points="73.79,204.96 67.71,204.96 70.75,208 			"/>
		</g>
	</g>
</g>
<g>
	<g>
		<line class="st13" x1="528.25" y1="178.5" x2="528.25" y2="205.37"/>
		<g>
			<polygon class="st10" points="531.29,204.96 525.21,204.96 528.25,208 			"/>
		</g>
	</g>
</g>
<g>
	<g>
		<line class="st13" x1="375.25" y1="178.5" x2="375.25" y2="205.37"/>
		<g>
			<polygon class="st10" points="378.29,204.96 372.21,204.96 375.25,208 			"/>
		</g>
	</g>
</g>
<g>
	<g>
		<line class="st13" x1="223.25" y1="178.5" x2="223.25" y2="205.37"/>
		<g>
			<polygon class="st10" points="226.29,204.96 220.21,204.96 223.25,208 			"/>
		</g>
	</g>
</g>
<line class="st13" x1="528.51" y1="178.5" x2="70.51" y2="178.5"/>
</svg>
